<svg xmlns="http://www.w3.org/2000/svg" viewBox="0 0 160 160" role="img" aria-label="All Seeing Eye app icon">
  <defs>
    <radialGradient id="bg" cx="50%" cy="28%" r="82%">
      <stop offset="0" stop-color="#1D2330"/>
      <stop offset=".62" stop-color="#0B0E14"/>
      <stop offset="1" stop-color="#05070B"/>
    </radialGradient>
    <radialGradient id="iris" cx="44%" cy="38%" r="66%">
      <stop offset="0" stop-color="#67E8F9"/>
      <stop offset=".5" stop-color="#60A5FA"/>
      <stop offset="1" stop-color="#2563EB"/>
    </radialGradient>
    <linearGradient id="net" x1="22" y1="34" x2="138" y2="126">
      <stop offset="0" stop-color="#F8FAFC"/>
      <stop offset=".46" stop-color="#67E8F9"/>
      <stop offset="1" stop-color="#A78BFA"/>
    </linearGradient>
    <filter id="glow" x="-40%" y="-40%" width="180%" height="180%">
      <feGaussianBlur stdDeviation="4" result="blur"/>
      <feMerge>
        <feMergeNode in="blur"/>
        <feMergeNode in="SourceGraphic"/>
      </feMerge>
    </filter>
  </defs>
  <rect width="160" height="160" rx="34" fill="url(#bg)"/>
  <circle cx="80" cy="80" r="58" fill="none" stroke="#202635" stroke-width="1.2"/>
  <circle cx="80" cy="80" r="44" fill="none" stroke="#202635" stroke-width="1" stroke-dasharray="2 8"/>
  <g fill="none" stroke-linecap="round" stroke-linejoin="round" filter="url(#glow)">
    <path d="M20 80 51 51 80 31.5 109 51 140 80 109 109 80 128.5 51 109 20 80Z" stroke="url(#net)" stroke-width="4.2"/>
    <path d="M51 51h58M51 109h58M51 51v58M109 51v58M51 51l58 58M109 51l-58 58M20 80h120M80 31.5v97" stroke="#E5E7EB" stroke-width="1.7" opacity=".52"/>
    <circle cx="80" cy="80" r="33.5" stroke="#60A5FA" stroke-width="6"/>
    <circle cx="80" cy="80" r="21.5" stroke="#E5E7EB" stroke-width="3" opacity=".84"/>
  </g>
  <circle cx="80" cy="80" r="14.8" fill="#08111F"/>
  <circle cx="80" cy="80" r="8.2" fill="url(#iris)"/>
  <circle cx="90.4" cy="69.6" r="4.5" fill="#F8FAFC"/>
  <g fill="#67E8F9" filter="url(#glow)">
    <circle cx="80" cy="31.5" r="5.6"/>
    <circle cx="80" cy="128.5" r="5.6"/>
    <circle cx="37.5" cy="80" r="5.1"/>
    <circle cx="122.5" cy="80" r="5.1"/>
  </g>
  <g fill="#E5E7EB">
    <circle cx="51" cy="51" r="5"/>
    <circle cx="109" cy="51" r="5"/>
    <circle cx="51" cy="109" r="5"/>
    <circle cx="109" cy="109" r="5"/>
  </g>
  <g fill="#A78BFA">
    <circle cx="20" cy="80" r="4.7"/>
    <circle cx="140" cy="80" r="4.7"/>
  </g>
</svg>
