<svg xmlns="http://www.w3.org/2000/svg" viewBox="0 0 420 108" role="img" aria-label="All Seeing Eye logo lockup">
  <defs>
    <radialGradient id="lockIris" cx="45%" cy="38%" r="68%">
      <stop offset="0" stop-color="#67E8F9"/>
      <stop offset=".48" stop-color="#60A5FA"/>
      <stop offset="1" stop-color="#2563EB"/>
    </radialGradient>
    <linearGradient id="lockNet" x1="8" y1="10" x2="70" y2="72">
      <stop offset="0" stop-color="#F8FAFC"/>
      <stop offset=".48" stop-color="#67E8F9"/>
      <stop offset="1" stop-color="#A78BFA"/>
    </linearGradient>
  </defs>
  <rect width="420" height="108" rx="22" fill="#0B0E14"/>
  <g transform="translate(22 18)">
    <path d="M4 36 18.8 18.8 36 7.5l17.2 11.3L68 36 53.2 53.2 36 64.5 18.8 53.2 4 36Z" fill="none" stroke="url(#lockNet)" stroke-width="2.5" stroke-linecap="round" stroke-linejoin="round"/>
    <path d="M18.8 18.8h34.4M18.8 53.2h34.4M18.8 18.8v34.4M53.2 18.8v34.4M18.8 18.8l34.4 34.4M53.2 18.8 18.8 53.2" fill="none" stroke="#E5E7EB" stroke-width="1.2" opacity=".56"/>
    <circle cx="36" cy="36" r="17" fill="none" stroke="#60A5FA" stroke-width="3"/>
    <circle cx="36" cy="36" r="10.4" fill="none" stroke="#E5E7EB" stroke-width="1.7" opacity=".84"/>
    <circle cx="36" cy="36" r="7" fill="#08111F"/>
    <circle cx="36" cy="36" r="3.8" fill="url(#lockIris)"/>
    <circle cx="40.6" cy="31.4" r="2.2" fill="#F8FAFC"/>
    <g fill="#67E8F9">
      <circle cx="36" cy="7.5" r="3"/>
      <circle cx="36" cy="64.5" r="3"/>
      <circle cx="10.4" cy="36" r="2.6"/>
      <circle cx="61.6" cy="36" r="2.6"/>
    </g>
    <g fill="#E5E7EB">
      <circle cx="18.8" cy="18.8" r="2.5"/>
      <circle cx="53.2" cy="18.8" r="2.5"/>
      <circle cx="18.8" cy="53.2" r="2.5"/>
      <circle cx="53.2" cy="53.2" r="2.5"/>
    </g>
  </g>
  <text x="112" y="50" fill="#E5E7EB" font-family="Geist, Inter Tight, Manrope, Avenir Next, system-ui, sans-serif" font-size="28" font-weight="650" letter-spacing="0">All Seeing Eye</text>
  <text x="114" y="76" fill="#9CA3AF" font-family="JetBrains Mono, Geist Mono, SFMono-Regular, Consolas, monospace" font-size="12" letter-spacing=".8">local agentic control plane</text>
</svg>
