<svg xmlns="http://www.w3.org/2000/svg">
  <symbol id="icon-skill" viewBox="0 0 24 24">
    <circle cx="12" cy="12" r="8" fill="none" stroke="currentColor" stroke-width="1.8"/>
    <circle cx="12" cy="12" r="3" fill="currentColor"/>
  </symbol>
  <symbol id="icon-agent" viewBox="0 0 24 24">
    <path d="M12 3.5 19.4 8v8L12 20.5 4.6 16V8L12 3.5Z" fill="none" stroke="currentColor" stroke-width="1.8" stroke-linejoin="round"/>
    <circle cx="12" cy="12" r="2.4" fill="currentColor"/>
  </symbol>
  <symbol id="icon-command" viewBox="0 0 24 24">
    <path d="M8 5l10 7-10 7V5Z" fill="currentColor"/>
  </symbol>
  <symbol id="icon-mcp" viewBox="0 0 24 24">
    <path d="M12 3.5 20.5 12 12 20.5 3.5 12 12 3.5Z" fill="none" stroke="currentColor" stroke-width="1.8" stroke-linejoin="round"/>
    <path d="M8.5 12h7" stroke="currentColor" stroke-width="1.8" stroke-linecap="round"/>
  </symbol>
  <symbol id="icon-hook" viewBox="0 0 24 24">
    <path d="M12 4 21 20H3L12 4Z" fill="none" stroke="currentColor" stroke-width="1.8" stroke-linejoin="round"/>
    <path d="M12 10v5" stroke="currentColor" stroke-width="1.8" stroke-linecap="round"/>
  </symbol>
  <symbol id="icon-rule" viewBox="0 0 24 24">
    <rect x="5" y="5" width="14" height="14" rx="2" fill="none" stroke="currentColor" stroke-width="1.8"/>
    <path d="M8 9h8M8 13h6" stroke="currentColor" stroke-width="1.8" stroke-linecap="round"/>
  </symbol>
  <symbol id="icon-memory" viewBox="0 0 24 24">
    <rect x="5" y="4.5" width="14" height="15" rx="2" fill="none" stroke="currentColor" stroke-width="1.8"/>
    <path d="M9 5v14M13 5v14M5 10h14M5 14h14" stroke="currentColor" stroke-width="1.2" opacity=".72"/>
  </symbol>
  <symbol id="icon-plugin" viewBox="0 0 24 24">
    <circle cx="12" cy="12" r="8" fill="none" stroke="currentColor" stroke-width="1.8"/>
    <path d="M12 7v10M7 12h10" stroke="currentColor" stroke-width="1.8" stroke-linecap="round"/>
  </symbol>
  <symbol id="icon-session" viewBox="0 0 24 24">
    <path d="M5 7h14M5 12h14M5 17h14" stroke="currentColor" stroke-width="1.8" stroke-linecap="round"/>
  </symbol>
  <symbol id="icon-task" viewBox="0 0 24 24">
    <rect x="5" y="5" width="14" height="14" rx="2" fill="none" stroke="currentColor" stroke-width="1.8"/>
    <path d="m8.5 12 2.2 2.2 4.8-5" stroke="currentColor" stroke-width="1.8" stroke-linecap="round" stroke-linejoin="round"/>
  </symbol>
  <symbol id="icon-output-style" viewBox="0 0 24 24">
    <path d="M5 18V6h14v12H5Z" fill="none" stroke="currentColor" stroke-width="1.8"/>
    <path d="M8 15c1.8-3.8 6.2-3.8 8 0" stroke="currentColor" stroke-width="1.8" stroke-linecap="round"/>
  </symbol>
  <symbol id="icon-statusline" viewBox="0 0 24 24">
    <path d="M4 16h16v4H4zM6 8h3v5H6zM11 5h3v8h-3zM16 10h3v3h-3z" fill="none" stroke="currentColor" stroke-width="1.8" stroke-linejoin="round"/>
  </symbol>
  <symbol id="icon-permission" viewBox="0 0 24 24">
    <path d="M12 3 19 6v6c0 4.2-2.8 7.3-7 9-4.2-1.7-7-4.8-7-9V6l7-3Z" fill="none" stroke="currentColor" stroke-width="1.8" stroke-linejoin="round"/>
    <path d="M9 12l2 2 4-5" stroke="currentColor" stroke-width="1.8" stroke-linecap="round" stroke-linejoin="round"/>
  </symbol>
  <symbol id="icon-marketplace" viewBox="0 0 24 24">
    <path d="M5 9h14l-1 10H6L5 9Z" fill="none" stroke="currentColor" stroke-width="1.8" stroke-linejoin="round"/>
    <path d="M8 9a4 4 0 0 1 8 0" fill="none" stroke="currentColor" stroke-width="1.8"/>
  </symbol>
  <symbol id="icon-tool" viewBox="0 0 24 24">
    <path d="M14.5 5.5 18 2l4 4-3.5 3.5M14.5 5.5l4 4M14.5 5.5 3 17v4h4L18.5 9.5" fill="none" stroke="currentColor" stroke-width="1.8" stroke-linecap="round" stroke-linejoin="round"/>
  </symbol>
</svg>
